<?xml version="1.0" encoding="UTF-8"?>
<svg xmlns="http://www.w3.org/2000/svg" fill-opacity="1" color-rendering="auto" color-interpolation="auto"
     text-rendering="auto" stroke="black" stroke-linecap="square" width="1275" stroke-miterlimit="10"
     shape-rendering="auto" stroke-opacity="1" fill="black" stroke-dasharray="none" font-weight="normal"
     stroke-width="1" height="1680" font-family="'Dialog'" font-style="normal" stroke-linejoin="miter" font-size="12px"
     stroke-dashoffset="0" image-rendering="auto">
  <!--Generated by ySVG 2.5-->
  <defs id="genericDefs"/>
  <g>
    <defs id="defs1">
      <clipPath clipPathUnits="userSpaceOnUse" id="clipPath1">
        <path d="M0 0 L1275 0 L1275 1680 L0 1680 L0 0 Z"/>
      </clipPath>
      <clipPath clipPathUnits="userSpaceOnUse" id="clipPath2">
        <path d="M309 136 L564 136 L564 472 L309 472 L309 136 Z"/>
      </clipPath>
    </defs>
    <g fill="white" text-rendering="geometricPrecision" shape-rendering="geometricPrecision"
       transform="scale(5,5) translate(-309,-136)" stroke="white">
      <rect x="309" width="255" height="336" y="136" clip-path="url(#clipPath2)" stroke="none"/>
    </g>
    <g fill="white" text-rendering="geometricPrecision" shape-rendering="geometricPrecision"
       transform="matrix(5,0,0,5,-1545,-680)" stroke="white">
      <rect x="312" width="165" height="330" y="139" clip-path="url(#clipPath2)" stroke="none"/>
    </g>
    <g text-rendering="geometricPrecision" stroke-miterlimit="1.45" shape-rendering="geometricPrecision"
       transform="matrix(5,0,0,5,-1545,-680)" stroke-linecap="butt">
      <rect fill="none" x="312" width="165" height="330" y="139" clip-path="url(#clipPath2)"/>
    </g>
    <g fill="rgb(204,102,255)" text-rendering="geometricPrecision" shape-rendering="geometricPrecision"
       transform="matrix(5,0,0,5,-1545,-680)" stroke="rgb(204,102,255)">
      <rect x="312" width="165" height="36" y="360" clip-path="url(#clipPath2)" stroke="none"/>
    </g>
    <g text-rendering="geometricPrecision" stroke-miterlimit="1.45" shape-rendering="geometricPrecision"
       transform="matrix(5,0,0,5,-1545,-680)" stroke-linecap="butt">
      <rect fill="none" x="312" width="165" height="36" y="360" clip-path="url(#clipPath2)"/>
    </g>
    <g stroke-linecap="butt" font-size="20px" transform="matrix(5,0,0,5,-1545,-680)" fill="white"
       text-rendering="geometricPrecision" font-family="sans-serif" shape-rendering="geometricPrecision" stroke="white"
       stroke-miterlimit="1.45">
      <text x="371.7949" xml:space="preserve" y="385.5586" clip-path="url(#clipPath2)" stroke="none">ROM</text>
      <text x="483" font-size="12px" y="364.5352" clip-path="url(#clipPath2)" fill="black" stroke="none"
            xml:space="preserve">0x80000000</text>
    </g>
    <g fill="silver" text-rendering="geometricPrecision" shape-rendering="geometricPrecision"
       transform="matrix(5,0,0,5,-1545,-680)" stroke="silver">
      <rect x="312" width="165" height="36" y="396" clip-path="url(#clipPath2)" stroke="none"/>
    </g>
    <g text-rendering="geometricPrecision" stroke-miterlimit="1.45" shape-rendering="geometricPrecision"
       transform="matrix(5,0,0,5,-1545,-680)" stroke-linecap="butt">
      <rect fill="none" x="312" width="165" height="36" y="396" clip-path="url(#clipPath2)"/>
    </g>
    <g stroke-linecap="butt" font-size="20px" transform="matrix(5,0,0,5,-1545,-680)" fill="white"
       text-rendering="geometricPrecision" font-family="sans-serif" shape-rendering="geometricPrecision" stroke="white"
       stroke-miterlimit="1.45">
      <text x="367.2783" xml:space="preserve" y="421.5586" clip-path="url(#clipPath2)" stroke="none">SRAM</text>
      <text x="483" font-size="12px" y="400.5352" clip-path="url(#clipPath2)" fill="black" stroke="none"
            xml:space="preserve">0x80020000</text>
      <text x="483" font-size="12px" y="436.5352" clip-path="url(#clipPath2)" fill="black" stroke="none"
            xml:space="preserve">0X90000000</text>
    </g>
    <g fill="teal" text-rendering="geometricPrecision" shape-rendering="geometricPrecision"
       transform="matrix(5,0,0,5,-1545,-680)" stroke="teal">
      <rect x="312" width="165" height="36" y="210" clip-path="url(#clipPath2)" stroke="none"/>
    </g>
    <g text-rendering="geometricPrecision" stroke-miterlimit="1.45" shape-rendering="geometricPrecision"
       transform="matrix(5,0,0,5,-1545,-680)" stroke-linecap="butt">
      <rect fill="none" x="312" width="165" height="36" y="210" clip-path="url(#clipPath2)"/>
    </g>
    <g stroke-linecap="butt" font-size="20px" transform="matrix(5,0,0,5,-1545,-680)" fill="white"
       text-rendering="geometricPrecision" font-family="sans-serif" shape-rendering="geometricPrecision" stroke="white"
       stroke-miterlimit="1.45">
      <text x="371.0967" xml:space="preserve" y="235.5586" clip-path="url(#clipPath2)" stroke="none">GPIO</text>
      <text x="483" font-size="12px" y="214.5352" clip-path="url(#clipPath2)" fill="black" stroke="none"
            xml:space="preserve">0x10012000</text>
      <text x="483" font-size="12px" y="250.5352" clip-path="url(#clipPath2)" fill="black" stroke="none"
            xml:space="preserve">0x10013000</text>
    </g>
  </g>
</svg>
