<?xml version="1.0" encoding="UTF-8"?>
<svg xmlns="http://www.w3.org/2000/svg" fill-opacity="1" color-rendering="auto" color-interpolation="auto"
     text-rendering="auto" stroke="black" stroke-linecap="square" width="770" stroke-miterlimit="10"
     shape-rendering="auto" stroke-opacity="1" fill="black" stroke-dasharray="none" font-weight="normal"
     stroke-width="1" height="785" font-family="'Dialog'" font-style="normal" stroke-linejoin="miter" font-size="12px"
     stroke-dashoffset="0" image-rendering="auto">
  <!--Generated by ySVG 2.5-->
  <defs id="genericDefs"/>
  <g>
    <defs id="defs1">
      <clipPath clipPathUnits="userSpaceOnUse" id="clipPath1">
        <path d="M0 0 L770 0 L770 785 L0 785 L0 0 Z"/>
      </clipPath>
      <clipPath clipPathUnits="userSpaceOnUse" id="clipPath2">
        <path d="M133 194 L287 194 L287 351 L133 351 L133 194 Z"/>
      </clipPath>
    </defs>
    <g fill="white" text-rendering="geometricPrecision" shape-rendering="geometricPrecision"
       transform="scale(5,5) translate(-133,-194)" stroke="white">
      <rect x="133" width="154" height="157" y="194" clip-path="url(#clipPath2)" stroke="none"/>
    </g>
    <g fill="rgb(255,142,58)" text-rendering="geometricPrecision" shape-rendering="geometricPrecision"
       transform="matrix(5,0,0,5,-665,-970)" stroke="rgb(255,142,58)">
      <rect x="144" y="197.0174" clip-path="url(#clipPath2)" width="60" rx="4" ry="4" height="60" stroke="none"/>
    </g>
    <g stroke-linecap="butt" transform="matrix(5,0,0,5,-665,-970)" fill="white" text-rendering="geometricPrecision"
       font-family="sans-serif" shape-rendering="geometricPrecision" stroke="white" stroke-miterlimit="1.45">
      <text x="153.7002" xml:space="preserve" y="224.4862" clip-path="url(#clipPath2)" stroke="none">RISC-V</text>
      <text x="162.375" xml:space="preserve" y="238.619" clip-path="url(#clipPath2)" stroke="none">CPU</text>
    </g>
    <g fill="rgb(153,153,153)" text-rendering="geometricPrecision" shape-rendering="geometricPrecision"
       transform="matrix(5,0,0,5,-665,-970)" stroke="rgb(153,153,153)">
      <rect x="136.5872" width="130" height="5" y="287.0174" clip-path="url(#clipPath2)" stroke="none"/>
      <rect stroke-linecap="butt" x="136.5872" y="287.0174" clip-path="url(#clipPath2)" fill="none" width="130"
            height="5" stroke-miterlimit="1.45"/>
      <rect x="234" y="214.5174" clip-path="url(#clipPath2)" fill="rgb(204,102,255)" width="50" height="25"
            stroke="none"/>
    </g>
    <g stroke-linecap="butt" transform="matrix(5,0,0,5,-665,-970)" fill="rgb(204,102,255)"
       text-rendering="geometricPrecision" shape-rendering="geometricPrecision" stroke="rgb(204,102,255)"
       stroke-miterlimit="1.45">
      <rect fill="none" x="234" width="50" height="25" y="214.5174" clip-path="url(#clipPath2)"/>
      <text x="245.377" y="231.5526" clip-path="url(#clipPath2)" fill="white" font-family="sans-serif" stroke="none"
            xml:space="preserve">ROM</text>
    </g>
    <g fill="silver" text-rendering="geometricPrecision" shape-rendering="geometricPrecision"
       transform="matrix(5,0,0,5,-665,-970)" stroke="silver">
      <rect x="136.5872" width="50" height="25" y="322.0174" clip-path="url(#clipPath2)" stroke="none"/>
      <rect stroke-linecap="butt" x="136.5872" y="322.0174" clip-path="url(#clipPath2)" fill="none" width="50"
            height="25" stroke-miterlimit="1.45"/>
    </g>
    <g stroke-linecap="butt" transform="matrix(5,0,0,5,-665,-970)" fill="white" text-rendering="geometricPrecision"
       font-family="sans-serif" shape-rendering="geometricPrecision" stroke="white" stroke-miterlimit="1.45">
      <text x="145.2542" xml:space="preserve" y="339.0526" clip-path="url(#clipPath2)" stroke="none">SRAM</text>
    </g>
    <g fill="teal" text-rendering="geometricPrecision" shape-rendering="geometricPrecision"
       transform="matrix(5,0,0,5,-665,-970)" stroke="teal">
      <rect x="216.5872" width="50" height="25" y="322.0174" clip-path="url(#clipPath2)" stroke="none"/>
      <rect stroke-linecap="butt" x="216.5872" y="322.0174" clip-path="url(#clipPath2)" fill="none" width="50"
            height="25" stroke-miterlimit="1.45"/>
    </g>
    <g stroke-linecap="butt" transform="matrix(5,0,0,5,-665,-970)" fill="white" text-rendering="geometricPrecision"
       font-family="sans-serif" shape-rendering="geometricPrecision" stroke="white" stroke-miterlimit="1.45">
      <text x="227.5453" xml:space="preserve" y="339.0526" clip-path="url(#clipPath2)" stroke="none">GPIO</text>
      <path fill="none" d="M174 264.9929 L174 278.9976" clip-path="url(#clipPath2)" stroke="black"/>
      <path fill="black" d="M174 256.9929 L169 268.9929 L174 265.9929 L179 268.9929 Z" clip-path="url(#clipPath2)"
            stroke="none"/>
      <path fill="black" d="M174 286.9976 L179 274.9976 L174 277.9976 L169 274.9976 Z" clip-path="url(#clipPath2)"
            stroke="none"/>
      <path fill="none" d="M212.0073 227.0175 L226 227.0175" clip-path="url(#clipPath2)" stroke="black"/>
      <path fill="black" d="M204.0073 227.0175 L216.0073 232.0175 L213.0073 227.0175 L216.0073 222.0175 Z"
            clip-path="url(#clipPath2)" stroke="none"/>
      <path fill="black" d="M234 227.0175 L222 222.0175 L225 227.0175 L222 232.0175 Z" clip-path="url(#clipPath2)"
            stroke="none"/>
      <path fill="none" d="M161.5872 314.0175 L161.5872 300.0439" clip-path="url(#clipPath2)" stroke="black"/>
      <path fill="black" d="M161.5872 322.0175 L166.5872 310.0175 L161.5872 313.0175 L156.5872 310.0175 Z"
            clip-path="url(#clipPath2)" stroke="none"/>
      <path fill="black" d="M161.5872 292.0439 L156.5872 304.0439 L161.5872 301.0439 L166.5872 304.0439 Z"
            clip-path="url(#clipPath2)" stroke="none"/>
      <path fill="none" d="M241.5872 300.0311 L241.5872 314.0175" clip-path="url(#clipPath2)" stroke="black"/>
      <path fill="black" d="M241.5872 292.0311 L236.5872 304.0311 L241.5872 301.0311 L246.5872 304.0311 Z"
            clip-path="url(#clipPath2)" stroke="none"/>
      <path fill="black" d="M241.5872 322.0175 L246.5872 310.0175 L241.5872 313.0175 L236.5872 310.0175 Z"
            clip-path="url(#clipPath2)" stroke="none"/>
    </g>
  </g>
</svg>
